<svg xmlns="http://www.w3.org/2000/svg" data-name="Layer 1" viewBox="0 0 32 40" x="0px" y="0px"><title>Trend</title><path d="M16,3A13,13,0,1,0,29,16,13,13,0,0,0,16,3Zm0,24a11,11,0,0,1-9.71-5.84l3.87-3.46,3.06,3.06a1,1,0,0,0,1.41,0l7.15-7.15v4.11a1,1,0,0,0,2,0V11.2a1,1,0,0,0-1-1H16.25a1,1,0,0,0,0,2h4.11l-6.44,6.44-3-3a1,1,0,0,0-1.37,0l-4,3.63A11,11,0,1,1,16,27Z"/><text x="0" y="47" fill="#000000" font-size="5px" font-weight="bold" font-family="'Helvetica Neue', Helvetica, Arial-Unicode, Arial, Sans-serif">Created by Mas Dhimas</text><text x="0" y="52" fill="#000000" font-size="5px" font-weight="bold" font-family="'Helvetica Neue', Helvetica, Arial-Unicode, Arial, Sans-serif">from the Noun Project</text></svg>